<?xml version="1.0" standalone="no"?>
<!DOCTYPE svg PUBLIC "-//W3C//DTD SVG 20010904//EN"
 "http://www.w3.org/TR/2001/REC-SVG-20010904/DTD/svg10.dtd">
<svg version="1.0" xmlns="http://www.w3.org/2000/svg"
 width="260.000000pt" height="260.000000pt" viewBox="0 0 260.000000 260.000000"
 preserveAspectRatio="xMidYMid meet">
<metadata>
Created by potrace 1.11, written by Peter Selinger 2001-2013
</metadata>
<g transform="translate(0.000000,260.000000) scale(0.100000,-0.100000)"
fill="#000000" stroke="none">
<path d="M527 1463 c-3 -2 -260 -59 -307 -68 -85 -15 -128 -25 -148 -32 -13
-5 424 -8 995 -7 l1018 1 145 32 c80 18 182 40 227 49 45 10 84 20 87 23 3 3
-449 5 -1005 5 -555 0 -1011 -1 -1012 -3z"/>
<path d="M587 1244 c-1 -1 -24 -4 -52 -7 -27 -3 -124 -22 -215 -42 -207 -45
-187 -41 -239 -50 -24 -4 -39 -10 -33 -14 19 -12 2003 -6 2047 7 22 6 55 14
73 17 19 3 71 14 115 24 45 10 121 27 170 36 48 10 85 20 82 23 -3 4 -1944 10
-1948 6z"/>
</g>
</svg>
