<?xml version="1.0" encoding="utf-8"?>
<!-- Generator: Adobe Illustrator 20.0.0, SVG Export Plug-In . SVG Version: 6.00 Build 0)  -->
<svg version="1.1" id="Capa_1" xmlns="http://www.w3.org/2000/svg" xmlns:xlink="http://www.w3.org/1999/xlink" x="0px" y="0px"
	 viewBox="0 0 24 24" style="enable-background:new 0 0 24 24;" xml:space="preserve">
<g>
	<path d="M7.3,16.4c-0.2,0-0.4,0.1-0.5,0.2c-0.1,0.1-0.2,0.3-0.2,0.5c0,0.4,0.3,0.8,0.8,0.8h0c0.2,0,0.4-0.1,0.5-0.2
		c0.1-0.1,0.2-0.3,0.2-0.5C8.1,16.7,7.8,16.4,7.3,16.4z M7.6,17.3c-0.1,0.1-0.1,0.1-0.2,0.1l0,0c-0.2,0-0.3-0.1-0.3-0.3
		c0-0.1,0-0.2,0.1-0.2s0.1-0.1,0.2-0.1c0.2,0,0.3,0.1,0.3,0.3C7.7,17.2,7.6,17.3,7.6,17.3z"/>
	<path d="M13.7,16.4c-0.2,0-0.4,0.1-0.5,0.2c-0.1,0.1-0.2,0.3-0.2,0.5c0,0.4,0.3,0.8,0.8,0.8h0c0.2,0,0.4-0.1,0.5-0.2
		s0.2-0.3,0.2-0.5C14.5,16.7,14.1,16.4,13.7,16.4z M13.9,17.3c-0.1,0.1-0.1,0.1-0.2,0.1l0,0c-0.2,0-0.3-0.1-0.3-0.3
		c0-0.1,0-0.2,0.1-0.2c0.1-0.1,0.1-0.1,0.2-0.1c0.2,0,0.3,0.1,0.3,0.3C14,17.2,14,17.3,13.9,17.3z"/>
	<path d="M20,17.9L20,17.9c0.2,0,0.4-0.1,0.5-0.2c0.1-0.1,0.2-0.3,0.2-0.5c0-0.4-0.3-0.8-0.8-0.8c-0.2,0-0.4,0.1-0.5,0.2
		c-0.1,0.1-0.2,0.3-0.2,0.5C19.3,17.5,19.6,17.9,20,17.9z M19.8,16.9c0.1-0.1,0.1-0.1,0.2-0.1c0.2,0,0.3,0.1,0.3,0.3
		c0,0.1,0,0.2-0.1,0.2c-0.1,0.1-0.1,0.1-0.2,0.1l0,0c-0.2,0-0.3-0.1-0.3-0.3C19.7,17,19.8,17,19.8,16.9z"/>
	<path d="M18.2,14.5H20c0.1,0,0.1,0,0.1-0.1l0,0l3.7-3.3c0,0,0.1-0.1,0.1-0.2c0-0.1,0-0.1-0.1-0.2L22,9.2c-0.1-0.1-0.2-0.1-0.3,0
		l-1.8,1.6h-1.4v-0.7c0-0.1-0.1-0.2-0.2-0.2h-2.2c-0.1,0-0.2,0.1-0.2,0.2v0.7h-4.5c-0.1-0.6-0.5-1-1-1.2V7.5h1.2
		c0.1,0,0.2-0.1,0.2-0.2V4.7c0-0.1-0.1-0.2-0.2-0.2H8.2C8.1,4.5,8,4.6,8,4.7v2.6c0,0.1,0.1,0.2,0.2,0.2h1.2v2.1
		c-0.5,0.2-0.9,0.7-1,1.2H7.4c-0.1,0-0.2,0.1-0.2,0.2v2l-2,1.2l-2.6-2.6c0.2-0.4,0.2-0.9-0.2-1.2L1.6,9.6c-0.1-0.1-0.2-0.1-0.3,0
		c-0.1,0.1-0.1,0.2,0,0.3l0.9,0.9c0.2,0.2,0.2,0.6,0,0.8c-0.1,0.1-0.2,0.2-0.4,0.2s-0.3-0.1-0.4-0.2l-0.9-0.9
		c-0.1-0.1-0.2-0.1-0.3,0c-0.1,0.1-0.1,0.2,0,0.3L1,11.9c0.2,0.2,0.4,0.3,0.7,0.3c0.2,0,0.4-0.1,0.6-0.2L5,14.7c0,0,0.1,0.1,0.2,0.1
		c0,0,0.1,0,0.1,0l1.9-1.1v0.7c0,0.1,0.1,0.2,0.2,0.2h1.5L7.9,15c-0.1,0-0.2,0-0.3-0.1c0-0.1-0.1-0.2-0.2-0.2l0,0
		c-0.1,0-0.2,0.1-0.2,0.2c-0.4,0-0.8,0.2-1.1,0.5c-0.1-0.1-0.2-0.1-0.3,0s-0.1,0.2,0,0.3c-0.3,0.3-0.4,0.7-0.5,1.1
		C5.1,16.9,5,17,5,17.1c0,0.1,0.1,0.2,0.2,0.2c0,0.4,0.2,0.8,0.5,1.1c-0.1,0.1-0.1,0.2,0,0.3c0,0,0.1,0.1,0.2,0.1s0.1,0,0.2-0.1
		c0.3,0.3,0.7,0.4,1.1,0.5c0,0.1,0.1,0.2,0.2,0.2l0,0c0.1,0,0.2-0.1,0.2-0.2c0.4,0,0.8-0.2,1.1-0.5c0,0,0.1,0.1,0.2,0.1
		c0.1,0,0.1,0,0.2-0.1c0.1-0.1,0.1-0.2,0-0.3c0.3-0.3,0.4-0.7,0.5-1.1c0.1,0,0.2-0.1,0.2-0.2s-0.1-0.2-0.2-0.2
		c0-0.4-0.2-0.8-0.5-1.1c0.1-0.1,0.1-0.2,0-0.3c-0.1-0.1-0.2-0.1-0.3,0c-0.1-0.1-0.2-0.1-0.3-0.2l1.4-0.7h5.8l-1,0.6
		c-0.2-0.1-0.4-0.1-0.7-0.2c0-0.1-0.1-0.2-0.2-0.2l0,0c-0.1,0-0.2,0.1-0.2,0.2c-0.4,0-0.8,0.2-1.1,0.5c-0.1-0.1-0.2-0.1-0.3,0
		c-0.1,0.1-0.1,0.2,0,0.3c-0.3,0.3-0.4,0.7-0.5,1.1c-0.1,0-0.2,0.1-0.2,0.2s0.1,0.2,0.2,0.2c0,0.4,0.2,0.8,0.5,1.1
		c-0.1,0.1-0.1,0.2,0,0.3c0,0,0.1,0.1,0.2,0.1c0.1,0,0.1,0,0.2-0.1c0.3,0.3,0.7,0.4,1.1,0.5c0,0.1,0.1,0.2,0.2,0.2l0,0
		c0.1,0,0.2-0.1,0.2-0.2c0.4,0,0.8-0.2,1.1-0.5c0,0,0.1,0.1,0.2,0.1s0.1,0,0.2-0.1c0.1-0.1,0.1-0.2,0-0.3c0.3-0.3,0.4-0.7,0.5-1.1
		c0.1,0,0.2-0.1,0.2-0.2c0-0.1-0.1-0.2-0.2-0.2c0-0.4-0.2-0.8-0.5-1.1c0.1-0.1,0.1-0.2,0-0.3c-0.1-0.1-0.2-0.1-0.3,0c0,0,0,0-0.1,0
		l1.2-0.7c0.1,0.2,0.4,0.4,0.6,0.4h0c0.3,0,0.5-0.2,0.7-0.4l1.2,0.8c0,0,0,0-0.1,0.1c-0.1-0.1-0.2-0.1-0.3,0c-0.1,0.1-0.1,0.2,0,0.3
		c-0.3,0.3-0.4,0.7-0.5,1.1c-0.1,0-0.2,0.1-0.2,0.2s0.1,0.2,0.2,0.2c0,0.4,0.2,0.8,0.5,1.1c-0.1,0.1-0.1,0.2,0,0.3
		c0,0,0.1,0.1,0.2,0.1c0.1,0,0.1,0,0.2-0.1c0.3,0.3,0.7,0.4,1.1,0.5c0,0.1,0.1,0.2,0.2,0.2l0,0c0.1,0,0.2-0.1,0.2-0.2
		c0.4,0,0.8-0.2,1.1-0.5c0,0,0.1,0.1,0.2,0.1c0.1,0,0.1,0,0.2-0.1c0.1-0.1,0.1-0.2,0-0.3c0.3-0.3,0.4-0.7,0.5-1.1
		c0.1,0,0.2-0.1,0.2-0.2c0-0.1-0.1-0.2-0.2-0.2c0-0.4-0.2-0.8-0.5-1.1c0.1-0.1,0.1-0.2,0-0.3c-0.1-0.1-0.2-0.1-0.3,0
		c-0.3-0.3-0.7-0.4-1.1-0.5c0-0.1-0.1-0.2-0.2-0.2l0,0c-0.1,0-0.2,0.1-0.2,0.2c-0.2,0-0.4,0.1-0.6,0.2L18.2,14.5z M8.5,16
		c0,0,0.1,0.1,0.2,0.1c0,0,0,0,0,0c0.2,0.2,0.3,0.6,0.4,0.9C9,17,9,17,9,17.1s0,0.1,0.1,0.2c0,0.3-0.2,0.6-0.4,0.9
		c-0.1,0-0.1,0-0.2,0.1c-0.1,0.1-0.1,0.1-0.1,0.2c-0.3,0.2-0.6,0.3-0.9,0.4c0-0.1-0.1-0.1-0.2-0.1l0,0c-0.1,0-0.1,0-0.2,0.1
		c-0.3,0-0.6-0.2-0.9-0.4c0-0.1,0-0.1-0.1-0.2c-0.1,0-0.1-0.1-0.2-0.1c-0.2-0.2-0.3-0.6-0.4-0.9c0.1,0,0.1-0.1,0.1-0.2
		s0-0.1-0.1-0.2c0-0.3,0.2-0.6,0.4-0.9c0,0,0,0,0,0c0.1,0,0.1,0,0.2-0.1c0.1-0.1,0.1-0.1,0.1-0.2c0.3-0.2,0.6-0.3,0.9-0.4
		c0,0.1,0.1,0.1,0.2,0.1l0,0c0.1,0,0.1,0,0.2-0.1c0.3,0,0.6,0.2,0.9,0.4C8.4,15.9,8.4,15.9,8.5,16z M14.8,16c0,0,0.1,0.1,0.2,0.1
		c0,0,0,0,0,0c0.2,0.2,0.3,0.6,0.4,0.9c-0.1,0-0.1,0.1-0.1,0.2s0,0.1,0.1,0.2c0,0.3-0.2,0.6-0.4,0.9c-0.1,0-0.1,0-0.2,0.1
		c-0.1,0.1-0.1,0.1-0.1,0.2c-0.3,0.2-0.6,0.3-0.9,0.4c0-0.1-0.1-0.1-0.2-0.1l0,0c-0.1,0-0.1,0-0.2,0.1c-0.3,0-0.6-0.2-0.9-0.4
		c0-0.1,0-0.1-0.1-0.2c-0.1-0.1-0.1-0.1-0.2-0.1C12.2,18,12,17.6,12,17.3c0.1,0,0.1-0.1,0.1-0.2S12,17,12,17c0-0.3,0.2-0.6,0.4-0.9
		c0,0,0,0,0,0c0.1,0,0.1,0,0.2-0.1c0.1-0.1,0.1-0.1,0.1-0.2c0.3-0.2,0.6-0.3,0.9-0.4c0,0.1,0.1,0.1,0.2,0.1l0,0c0.1,0,0.1,0,0.2-0.1
		c0.3,0,0.6,0.2,0.9,0.4C14.8,15.9,14.8,15.9,14.8,16z M20.2,12.3l2.3-2l0.2,0.2l-2.4,2.2L20.2,12.3L20.2,12.3z M20.2,13.8v-0.6
		l2.8-2.5l0.3,0.3L20.2,13.8z M21.9,9.7l0.3,0.3l-1.9,1.7v-0.5L21.9,9.7z M16.4,10.3h1.7v0.5h-1.7V10.3z M11.4,7.1h-0.3V4.9h0.3V7.1
		z M8.4,4.9h2.3v2.1H8.4V4.9z M9.8,7.5H10v2c0,0-0.1,0-0.1,0h0c0,0-0.1,0-0.1,0V7.5z M9.9,10C9.9,10,9.9,10,9.9,10
		c0.5,0,1,0.4,1.1,0.9H8.9C9,10.3,9.4,10,9.9,10z M7.6,14.1v-0.8l0.6-0.4c0.1,0.1,0.3,0.2,0.5,0.2h0c0.2,0,0.4-0.1,0.5-0.2
		c0.1-0.1,0.2-0.3,0.2-0.5c0-0.4-0.3-0.8-0.8-0.8c-0.2,0-0.4,0.1-0.5,0.2C8.1,12,8,12.2,8,12.4c0,0,0,0.1,0,0.1l-0.4,0.3v-1.5h12.2
		v2.8h-2.2c-0.1-0.3-0.4-0.6-0.7-0.6c-0.1,0-0.2,0-0.3,0.1l-2.1-1.3c0,0,0,0,0,0c0-0.4-0.3-0.8-0.8-0.8c-0.4,0-0.8,0.3-0.8,0.8
		c0,0,0,0,0,0l-3.3,1.8L7.6,14.1L7.6,14.1z M8.4,12.4c0-0.1,0-0.2,0.1-0.2c0.1-0.1,0.1-0.1,0.2-0.1c0.2,0,0.3,0.1,0.3,0.3
		c0,0.1,0,0.2-0.1,0.2c-0.1,0.1-0.1,0.1-0.2,0.1l0,0C8.6,12.7,8.4,12.6,8.4,12.4z M14,12.3c0,0.2-0.1,0.3-0.3,0.3l0,0
		c-0.2,0-0.3-0.1-0.3-0.3c0-0.2,0.1-0.3,0.3-0.3C13.9,12,14,12.1,14,12.3z M13.1,12.8c0.1,0.2,0.4,0.3,0.6,0.3h0
		c0.2,0,0.5-0.1,0.6-0.3l1.9,1.1c0,0.1-0.1,0.1-0.1,0.2h-5.5L13.1,12.8z M16.8,14.6L16.8,14.6c-0.2,0-0.3-0.1-0.3-0.3
		c0-0.2,0.1-0.3,0.3-0.3c0.2,0,0.3,0.1,0.3,0.3C17.2,14.4,17,14.6,16.8,14.6z M19.8,15.4c0,0.1,0.1,0.1,0.2,0.1l0,0
		c0.1,0,0.1,0,0.2-0.1c0.3,0,0.6,0.2,0.9,0.4c0,0.1,0,0.1,0.1,0.2c0,0,0.1,0.1,0.2,0.1c0,0,0,0,0,0c0.2,0.2,0.3,0.6,0.4,0.9
		c-0.1,0-0.1,0.1-0.1,0.2s0,0.1,0.1,0.2c0,0.3-0.2,0.6-0.4,0.9c-0.1,0-0.1,0-0.2,0.1c-0.1,0.1-0.1,0.1-0.1,0.2
		c-0.3,0.2-0.6,0.3-0.9,0.4c0-0.1-0.1-0.1-0.2-0.1l0,0c-0.1,0-0.1,0-0.2,0.1c-0.3,0-0.6-0.2-0.9-0.4c0-0.1,0-0.1-0.1-0.2
		c-0.1-0.1-0.1-0.1-0.2-0.1c-0.2-0.2-0.3-0.6-0.4-0.9c0.1,0,0.1-0.1,0.1-0.2c0-0.1,0-0.1-0.1-0.2c0-0.3,0.2-0.6,0.4-0.9c0,0,0,0,0,0
		c0.1,0,0.1,0,0.2-0.1c0.1-0.1,0.1-0.1,0.1-0.2C19.2,15.6,19.5,15.5,19.8,15.4z"/>
	<path d="M9.6,5.2C9.1,5.2,8.8,5.6,8.8,6c0,0.4,0.3,0.8,0.8,0.8h0c0.4,0,0.8-0.3,0.8-0.8C10.3,5.6,10,5.2,9.6,5.2z M9.6,6.3L9.6,6.3
		C9.4,6.3,9.2,6.1,9.2,6c0-0.2,0.1-0.3,0.3-0.3c0.2,0,0.3,0.1,0.3,0.3C9.9,6.1,9.7,6.3,9.6,6.3z"/>
	<path d="M17.4,12.2H19c0.1,0,0.2-0.1,0.2-0.2c0-0.1-0.1-0.2-0.2-0.2h-1.7c-0.1,0-0.2,0.1-0.2,0.2C17.2,12.1,17.3,12.2,17.4,12.2z"
		/>
	<path d="M17.4,12.9H19c0.1,0,0.2-0.1,0.2-0.2c0-0.1-0.1-0.2-0.2-0.2h-1.7c-0.1,0-0.2,0.1-0.2,0.2C17.2,12.8,17.3,12.9,17.4,12.9z"
		/>
</g>
</svg>
