<?xml version="1.0" encoding="utf-8"?>
<!-- Generator: Adobe Illustrator 20.0.0, SVG Export Plug-In . SVG Version: 6.00 Build 0)  -->
<svg version="1.1" id="Capa_1" xmlns="http://www.w3.org/2000/svg" xmlns:xlink="http://www.w3.org/1999/xlink" x="0px" y="0px"
	 viewBox="0 0 432 271.6" style="enable-background:new 0 0 432 271.6;" xml:space="preserve">
<g>
	<path d="M131.5,215.1c-3.7,0-7.1,1.5-9.7,4.1c-2.6,2.6-4,6.1-4,9.8c0,7.6,6.2,13.7,13.8,13.7h0.1c3.7,0,7.1-1.5,9.7-4.1
		c2.6-2.6,4-6.1,4-9.8C145.3,221.2,139.2,215.1,131.5,215.1z M135.7,232.9c-1.1,1.1-2.5,1.7-4.1,1.7h0c-3.2,0-5.7-2.6-5.8-5.7
		c0-1.5,0.6-3,1.7-4.1c1.1-1.1,2.5-1.7,4.1-1.7c3.2,0,5.7,2.6,5.8,5.7C137.4,230.3,136.8,231.8,135.7,232.9z"/>
	<path d="M246.6,215.1c-3.7,0-7.1,1.5-9.7,4.1c-2.6,2.6-4,6.1-4,9.8c0,7.6,6.2,13.7,13.8,13.7h0.1c3.7,0,7.1-1.5,9.7-4.1
		c2.6-2.6,4-6.1,4-9.8C260.4,221.2,254.2,215.1,246.6,215.1z M250.7,232.9c-1.1,1.1-2.5,1.7-4.1,1.7h0c-3.2,0-5.7-2.6-5.8-5.7
		c0-1.5,0.6-3,1.7-4.1s2.5-1.7,4.1-1.7c3.2,0,5.7,2.6,5.8,5.7C252.4,230.3,251.8,231.8,250.7,232.9z"/>
	<path d="M361.7,242.6L361.7,242.6c3.7,0,7.2-1.5,9.8-4.1c2.6-2.6,4-6.1,4-9.8c0-7.6-6.2-13.7-13.8-13.7c-3.7,0-7.1,1.5-9.7,4.1
		c-2.6,2.6-4,6.1-4,9.8C348,236.5,354.1,242.6,361.7,242.6z M357.6,224.8c1.1-1.1,2.5-1.7,4.1-1.7c3.2,0,5.7,2.6,5.8,5.7
		c0,1.5-0.6,3-1.7,4.1s-2.5,1.7-4.1,1.7h0c-3.2,0-5.7-2.6-5.8-5.7C355.9,227.3,356.5,225.9,357.6,224.8z"/>
	<path d="M327.6,181.8h33.9c1,0,1.9-0.4,2.6-1l0,0l66.5-59.8c0.8-0.8,1.3-1.8,1.3-3s-0.5-2.2-1.3-3l-33-29.7c-1.5-1.4-3.8-1.4-5.4,0
		l-32.6,29.3h-24.8v-13c0-2.2-1.8-4-4-4h-39c-2.2,0-4,1.8-4,4v13h-82.1c-1.5-10-8.4-18.3-17.7-21.8V54.7h21.3c2.2,0,4-1.8,4-4V4
		c0-2.2-1.8-4-4-4h-62c-2.2,0-4,1.8-4,4v46.7c0,2.2,1.8,4,4,4h21.3v38.3c-9.2,3.5-16.2,11.8-17.7,21.8h-19.3c-2.2,0-4,1.8-4,4V155
		l-35.4,21.5l-46.6-46.6c4-7,3.1-16.1-2.9-22.1L27.1,91.9c-1.6-1.6-4.1-1.6-5.7,0c-1.6,1.6-1.6,4.1,0,5.7l15.8,15.8
		c4,4,4,10.6,0,14.6c-2,2-4.5,3-7.3,3s-5.4-1.1-7.3-3L6.8,112.2c-1.6-1.6-4.1-1.6-5.7,0c-1.6,1.6-1.6,4.1,0,5.7L17,133.6
		c3.5,3.5,8.1,5.4,13,5.4c3.8,0,7.4-1.2,10.4-3.3L89,184.3c0.8,0.8,1.8,1.2,2.8,1.2c0.7,0,1.4-0.2,2.1-0.6l33.9-20.6v13.5
		c0,2.2,1.8,4,4,4h26.7l-17.2,9.2c-1.9-0.5-3.9-0.8-5.9-1c0-2.2-1.8-3.9-4-3.9c0,0,0,0,0,0c-2.2,0-4,1.8-4,4
		c-7.6,0.8-14.7,3.8-20.6,8.7c-1.6-1.5-4.1-1.5-5.6,0.1c-1.5,1.6-1.5,4.1,0,5.6c-4.8,5.9-7.7,13.1-8.5,20.7c-2.2,0-3.9,1.8-3.9,4
		c0,2.2,1.8,4,4,4c0.8,7.8,4,14.8,8.7,20.6c-1.5,1.6-1.5,4.1,0,5.6c0.8,0.8,1.8,1.2,2.8,1.2c1,0,2-0.4,2.8-1.2
		c5.8,4.7,12.9,7.7,20.7,8.5c0,2.2,1.8,3.9,4,3.9c0,0,0,0,0,0c2.2,0,4-1.8,4-4c7.6-0.8,14.7-3.8,20.6-8.7c0.8,0.7,1.8,1.1,2.8,1.1
		c1,0,2.1-0.4,2.8-1.2c1.5-1.6,1.5-4,0-5.6c4.8-5.9,7.7-13.1,8.5-20.7c2.2,0,3.9-1.8,3.9-4c0-2.2-1.8-4-4-4
		c-0.8-7.8-4-14.8-8.7-20.6c1.5-1.6,1.5-4.1,0-5.6c-1.6-1.5-4.1-1.5-5.6,0c-1.6-1.3-3.3-2.5-5.1-3.5l24.5-13.1h105.5l-18.6,11.3
		c-3.7-1.6-7.7-2.7-11.9-3.1c0-2.2-1.8-3.9-4-3.9c0,0,0,0,0,0c-2.2,0-4,1.8-4,4c-7.6,0.8-14.7,3.8-20.6,8.7
		c-1.6-1.5-4.1-1.5-5.6,0.1c-1.5,1.6-1.5,4.1,0,5.6c-4.8,5.9-7.7,13.1-8.5,20.7c-2.2,0-3.9,1.8-3.9,4c0,2.2,1.8,4,4,4
		c0.8,7.8,4,14.8,8.7,20.6c-1.5,1.6-1.5,4.1,0,5.6c0.8,0.8,1.8,1.2,2.8,1.2c1,0,2-0.4,2.8-1.2c5.8,4.7,12.9,7.7,20.7,8.5
		c0,2.2,1.8,3.9,4,3.9c0,0,0,0,0,0c2.2,0,4-1.8,4-4c7.6-0.8,14.7-3.8,20.6-8.7c0.8,0.7,1.8,1.1,2.8,1.1c1,0,2.1-0.4,2.8-1.2
		c1.5-1.6,1.5-4.1,0-5.6c4.8-5.9,7.7-13.1,8.5-20.7c2.2,0,3.9-1.8,3.9-4c0-2.2-1.8-4-4-4c-0.8-7.8-4-14.8-8.7-20.6
		c1.5-1.6,1.5-4.1,0-5.6c-1.6-1.5-4.1-1.5-5.6,0c-0.3-0.3-0.6-0.5-1-0.8l21.8-13.2c2.4,3.9,6.8,6.5,11.7,6.5h0.1
		c5.1,0,9.6-2.9,11.9-7.1l22.6,13.7c-0.5,0.3-0.9,0.7-1.3,1.1c-1.6-1.5-4.1-1.5-5.6,0.1c-1.5,1.6-1.5,4.1,0,5.6
		c-4.8,5.9-7.7,13.1-8.5,20.7c-2.2,0-3.9,1.8-3.9,4c0,2.2,1.8,4,4,4c0.8,7.8,4,14.8,8.7,20.6c-1.5,1.6-1.5,4.1,0,5.6
		c0.8,0.8,1.8,1.2,2.8,1.2c1,0,2-0.4,2.8-1.2c5.8,4.7,12.9,7.7,20.7,8.5c0,2.2,1.8,3.9,4,3.9c0,0,0,0,0,0c2.2,0,4-1.8,4-4
		c7.6-0.8,14.7-3.8,20.6-8.7c0.8,0.7,1.8,1.1,2.8,1.1c1,0,2.1-0.4,2.8-1.2c1.5-1.6,1.5-4.1,0-5.6c4.8-5.9,7.7-13.1,8.5-20.7
		c2.2,0,3.9-1.8,3.9-4c0-2.2-1.8-4-4-4c-0.8-7.8-4-14.8-8.7-20.6c1.5-1.6,1.5-4.1,0-5.6c-1.6-1.5-4.1-1.5-5.6,0
		c-5.8-4.7-12.9-7.7-20.7-8.5c0-2.2-1.8-3.9-4-3.9c0,0,0,0,0,0c-2.2,0-4,1.8-4,4c-4,0.4-7.8,1.4-11.4,3L327.6,181.8z M152.1,208.2
		c0.8,0.8,1.8,1.2,2.8,1.2c0.2,0,0.5,0,0.7-0.1c3.7,4.5,6.1,10.1,6.8,16.1c-1.1,0.7-1.7,1.9-1.7,3.3c0,1.4,0.7,2.6,1.8,3.3
		c-0.6,5.9-2.9,11.5-6.6,16.2c-1.3-0.2-2.6,0.1-3.6,1.1c-1,1-1.3,2.3-1.1,3.6c-4.6,3.8-10.2,6.1-16.1,6.8c-0.7-1.1-1.9-1.7-3.3-1.7
		c0,0,0,0,0,0c-1.4,0-2.6,0.7-3.3,1.8c-6.1-0.6-11.7-3-16.2-6.7c0.2-1.2-0.1-2.6-1.1-3.5s-2.3-1.3-3.6-1.1
		c-3.7-4.5-6.1-10.1-6.8-16.1c1.1-0.7,1.7-1.9,1.7-3.3c0-1.4-0.7-2.6-1.8-3.3c0.6-5.9,2.9-11.5,6.6-16.2c0.2,0,0.5,0.1,0.7,0.1
		c1,0,2.1-0.4,2.8-1.2c1-1,1.3-2.3,1.1-3.6c4.6-3.8,10.2-6.1,16.1-6.8c0.7,1.1,1.9,1.7,3.3,1.7c0,0,0,0,0,0c1.4,0,2.6-0.7,3.3-1.8
		c6.1,0.6,11.7,3,16.2,6.7C150.8,205.9,151.1,207.2,152.1,208.2z M267.1,208.2c0.8,0.8,1.8,1.2,2.8,1.2c0.2,0,0.5,0,0.7-0.1
		c3.7,4.5,6.1,10.1,6.8,16.1c-1.1,0.7-1.7,1.9-1.7,3.3c0,1.4,0.7,2.6,1.8,3.3c-0.6,5.9-2.9,11.5-6.6,16.2c-1.3-0.2-2.6,0.1-3.6,1.1
		c-1,1-1.3,2.3-1.1,3.6c-4.6,3.8-10.2,6.1-16.1,6.8c-0.7-1.1-1.9-1.7-3.3-1.7c0,0,0,0,0,0c-1.4,0-2.6,0.7-3.3,1.8
		c-6.1-0.6-11.7-3-16.2-6.7c0.2-1.2-0.1-2.6-1.1-3.5c-1-1-2.3-1.3-3.6-1.1c-3.7-4.5-6.1-10.1-6.8-16.1c1.1-0.7,1.7-1.9,1.7-3.3
		c0-1.4-0.7-2.6-1.8-3.3c0.6-5.9,2.9-11.5,6.6-16.2c0.2,0,0.5,0.1,0.7,0.1c1,0,2.1-0.4,2.8-1.2c1-1,1.3-2.3,1.1-3.6
		c4.6-3.8,10.2-6.1,16.1-6.8c0.7,1.1,1.9,1.7,3.3,1.7c0,0,0,0,0,0c1.4,0,2.6-0.7,3.3-1.8c6.1,0.6,11.7,3,16.2,6.7
		C265.8,205.9,266.2,207.2,267.1,208.2z M365.5,140.7l40.9-36.7l3.4,3l-44.2,39.8V140.7z M365.5,168.9v-11.3l50.2-45.1l6.3,5.7
		L365.5,168.9z M394.9,93.8l5.4,4.9L365.5,130v-9.7L394.9,93.8z M295.8,105.7h31v9h-31V105.7z M205.4,46.7h-4.7V8h4.7V46.7z
		 M151.4,8h41.3v38.7h-41.3V8z M176.8,54.7h3.3v36.6c-0.6,0-1.1-0.1-1.7-0.1c0,0-0.1,0-0.1,0c-0.5,0-1,0-1.5,0.1V54.7z M178.3,99.2
		C178.4,99.2,178.4,99.2,178.3,99.2c9.5,0,17.4,6.7,19.3,15.5h-38.4C161.1,105.9,169,99.2,178.3,99.2z M135.8,173.8v-14.4l11.5-7
		c2.5,2.5,6,4.1,9.8,4.1h0.1c3.7,0,7.1-1.5,9.7-4.1c2.6-2.6,4-6.1,4-9.8c0-7.6-6.2-13.7-13.8-13.7c-3.7,0-7.1,1.5-9.7,4.1
		c-2.6,2.6-4,6.1-4,9.8c0,0.8,0.1,1.7,0.2,2.5l-7.8,4.7v-27.4h221.7v51.1h-40.5c-1.5-6-6.9-10.4-13.4-10.4c-2.2,0-4.2,0.5-6,1.4
		l-37.3-22.7c0-0.2,0-0.5,0-0.7c0-7.6-6.2-13.7-13.8-13.7c-7.6,0-13.7,6.2-13.7,13.8c0,0.1,0,0.3,0,0.4l-59.3,31.8L135.8,173.8
		L135.8,173.8z M151.3,142.9c0-1.5,0.6-3,1.7-4.1s2.5-1.7,4.1-1.7c3.2,0,5.7,2.6,5.8,5.7c0,1.5-0.6,3-1.7,4.1s-2.5,1.7-4.1,1.7h0
		C153.9,148.6,151.4,146,151.3,142.9z M252.2,141.5c0,3.2-2.6,5.8-5.7,5.8h0c-3.2,0-5.7-2.6-5.8-5.7c0-3.2,2.6-5.8,5.8-5.8
		C249.6,135.7,252.2,138.3,252.2,141.5z M235.4,149.6c2.5,3.4,6.5,5.6,11.1,5.6h0.1c4.4,0,8.4-2.2,10.9-5.4l34.2,20.8
		c-0.5,1-1,2.1-1.3,3.2h-100L235.4,149.6z M303.6,182.9L303.6,182.9c-3.2,0-5.8-2.6-5.8-5.7c0-3.2,2.6-5.8,5.8-5.8
		c3.2,0,5.7,2.6,5.8,5.7C309.4,180.3,306.8,182.9,303.6,182.9z M358.2,198c0.7,1.1,1.9,1.7,3.3,1.7c0,0,0,0,0,0
		c1.4,0,2.6-0.7,3.3-1.8c6.1,0.6,11.7,3,16.2,6.7c-0.2,1.2,0.1,2.6,1.1,3.5c0.8,0.8,1.8,1.2,2.8,1.2c0.2,0,0.5,0,0.7-0.1
		c3.7,4.5,6.1,10.1,6.8,16.1c-1.1,0.7-1.7,1.9-1.7,3.3c0,1.4,0.7,2.6,1.8,3.3c-0.6,5.9-2.9,11.5-6.6,16.2c-1.3-0.2-2.6,0.1-3.6,1.1
		c-1,1-1.3,2.3-1.1,3.6c-4.6,3.8-10.2,6.1-16.1,6.8c-0.7-1.1-1.9-1.7-3.3-1.7c0,0,0,0,0,0c-1.4,0-2.6,0.7-3.3,1.8
		c-6.1-0.6-11.7-3-16.2-6.7c0.2-1.2-0.1-2.6-1.1-3.5c-1-1-2.3-1.3-3.6-1.1c-3.7-4.5-6.1-10.1-6.8-16.1c1.1-0.7,1.7-1.9,1.7-3.3
		c0-1.4-0.7-2.6-1.8-3.3c0.6-5.9,2.9-11.5,6.6-16.2c0.2,0,0.5,0.1,0.7,0.1c1,0,2.1-0.4,2.8-1.2c1-1,1.3-2.3,1.1-3.6
		C346.7,201,352.3,198.6,358.2,198z"/>
	<path d="M171.7,12.9c-7.6,0-13.7,6.2-13.7,13.8c0,7.6,6.2,13.7,13.8,13.7h0.1c7.6,0,13.7-6.2,13.7-13.8
		C185.5,19,179.3,12.9,171.7,12.9z M171.8,32.4L171.8,32.4c-3.2,0-5.8-2.6-5.8-5.7c0-3.2,2.6-5.8,5.8-5.8c3.2,0,5.7,2.6,5.8,5.7
		C177.6,29.8,175,32.4,171.8,32.4z"/>
	<path d="M313.4,140.2h30c2.2,0,4-1.8,4-4s-1.8-4-4-4h-30c-2.2,0-4,1.8-4,4S311.2,140.2,313.4,140.2z"/>
	<path d="M313.4,151.5h30c2.2,0,4-1.8,4-4s-1.8-4-4-4h-30c-2.2,0-4,1.8-4,4S311.2,151.5,313.4,151.5z"/>
</g>
</svg>
