<svg id="Layer_1" data-name="Layer 1" xmlns="http://www.w3.org/2000/svg" viewBox="0 0 524.91 107.86"><defs><style>.cls-1{fill:#fff;}</style></defs><title>logoOneLab White</title><path class="cls-1" d="M58.16,4.22A17.71,17.71,0,0,1,67,7.82a12.09,12.09,0,0,1,4,8q.72,5.23-1.1,13.87l-4,19.39a53.38,53.38,0,0,1-4.7,14,23,23,0,0,1-7.25,8.35,26.27,26.27,0,0,1-10.42,4,83.62,83.62,0,0,1-14.21,1.06,85.1,85.1,0,0,1-14-1q-5.62-1-8.59-3.89T3.25,63.31q-.48-5.42,1.44-14.26l4-19.39a57.07,57.07,0,0,1,4.46-13.54,20.86,20.86,0,0,1,6.82-8A25,25,0,0,1,30.22,4.32a95,95,0,0,1,14.59-1A88.51,88.51,0,0,1,58.16,4.22ZM33.34,15.84a12.66,12.66,0,0,0-5.47,2.3,10.34,10.34,0,0,0-3.17,4.42,55.39,55.39,0,0,0-2.16,7.1l-4,19.39a43.2,43.2,0,0,0-1.15,8.54,6.7,6.7,0,0,0,1.44,4.66,7.37,7.37,0,0,0,4.61,2,64.43,64.43,0,0,0,8.35.43,57.89,57.89,0,0,0,8.06-.48,12.75,12.75,0,0,0,5.66-2.11,12.32,12.32,0,0,0,3.84-4.75A37.8,37.8,0,0,0,52,49.05l4-19.39a28,28,0,0,0,.91-8,6,6,0,0,0-2-4.32,9.26,9.26,0,0,0-4.9-1.82,66.31,66.31,0,0,0-7.78-.38A48.26,48.26,0,0,0,33.34,15.84Z"/><path class="cls-1" d="M92.62,25.53,91,33.11h.38a15.17,15.17,0,0,1,3.5-4.42,14.28,14.28,0,0,1,4.18-2.45,18.75,18.75,0,0,1,4.7-1.06q2.5-.24,5.18-.24A25.41,25.41,0,0,1,117,26a9.06,9.06,0,0,1,4.61,3.22,10.09,10.09,0,0,1,1.68,5.52,33,33,0,0,1-.82,8l-7.1,33.22h-12.1l6.82-32a22.23,22.23,0,0,0,.58-4.51,5.46,5.46,0,0,0-.77-3.07,4.43,4.43,0,0,0-2.54-1.68,16.86,16.86,0,0,0-4.66-.53,19.93,19.93,0,0,0-6.53.91A10.22,10.22,0,0,0,92,37.77a13,13,0,0,0-2.59,4.42,41.24,41.24,0,0,0-1.63,6L81.87,75.93H69.77l10.75-50.4Z"/><path class="cls-1" d="M175.37,59.9a24.88,24.88,0,0,1-3.6,9.26A14.92,14.92,0,0,1,166,74.11a22.49,22.49,0,0,1-7.82,2q-4.42.38-9.79.38a42.37,42.37,0,0,1-11.47-1.25A10.72,10.72,0,0,1,130.69,71a13.42,13.42,0,0,1-1.82-7.92,71.43,71.43,0,0,1,1.68-12.24,83.94,83.94,0,0,1,3.26-11.62,22.47,22.47,0,0,1,4.94-8.06,19,19,0,0,1,8-4.7A42.94,42.94,0,0,1,159.34,25a44.6,44.6,0,0,1,12.14,1.3,9.83,9.83,0,0,1,6.14,4.46q1.78,3.17,1.39,8.59A105.8,105.8,0,0,1,176.91,53H142.25q-.86,4-1.25,6.82a8.28,8.28,0,0,0,.34,4.42,4.44,4.44,0,0,0,2.83,2.35,20,20,0,0,0,6.14.72q2.5,0,4.61-.1a11.53,11.53,0,0,0,3.79-.77,6.53,6.53,0,0,0,2.83-2.21,10.84,10.84,0,0,0,1.73-4.32Zm-8.93-14.59a32.66,32.66,0,0,0,.91-6.1,4.7,4.7,0,0,0-1-3.36,5,5,0,0,0-3.17-1.39,47,47,0,0,0-5.9-.29,32,32,0,0,0-6.24.48,7.09,7.09,0,0,0-5.81,5.14,47.07,47.07,0,0,0-1.39,5.52Z"/><path class="cls-1" d="M198.6,64.12h33.6l-2.5,11.81H182.29l15.26-72h13.82Z"/><path class="cls-1" d="M270.41,69.6h-.29a11.72,11.72,0,0,1-3.46,3.89,14.88,14.88,0,0,1-4.32,2.06,21.35,21.35,0,0,1-4.7.82q-2.4.15-4.61.14a45.83,45.83,0,0,1-7.68-.58,11.23,11.23,0,0,1-5.42-2.3,8.41,8.41,0,0,1-2.74-4.9,20.75,20.75,0,0,1,.38-8.26A23.73,23.73,0,0,1,240.36,53a14.77,14.77,0,0,1,4.56-4.75,18,18,0,0,1,6.38-2.5,43.46,43.46,0,0,1,8.35-.72q2.3,0,4.51.1a16.22,16.22,0,0,1,4.08.67,9.4,9.4,0,0,1,3.26,1.73,6.78,6.78,0,0,1,2.06,3.26H274l1.34-6.53a43.86,43.86,0,0,0,.86-5.18,5.38,5.38,0,0,0-.62-3.41,4.69,4.69,0,0,0-2.83-1.87,22.08,22.08,0,0,0-5.76-.58,35.62,35.62,0,0,0-3.79.19,10.17,10.17,0,0,0-3.22.86,6.16,6.16,0,0,0-2.45,2.11,11.29,11.29,0,0,0-1.58,3.84h-12.1a20.31,20.31,0,0,1,3.6-8.54,15.51,15.51,0,0,1,5.71-4.56,21.78,21.78,0,0,1,7.25-1.82q4-.34,8.3-.34a65.84,65.84,0,0,1,10.22.67,13,13,0,0,1,6.53,2.69,8.82,8.82,0,0,1,2.83,5.86,32.16,32.16,0,0,1-.86,10.18l-6.72,31.58h-12.1ZM257.93,53.37a11.36,11.36,0,0,0-3.7.77,6.67,6.67,0,0,0-2.83,2.16,10.36,10.36,0,0,0-1.73,4.18,12.27,12.27,0,0,0-.34,4.22,3.38,3.38,0,0,0,1.39,2.35,6.57,6.57,0,0,0,3.22,1q2.06.19,5.14.19,2.4,0,4.46-.19a10.76,10.76,0,0,0,3.74-1,7.7,7.7,0,0,0,2.83-2.35,10.76,10.76,0,0,0,1.73-4.22,7.25,7.25,0,0,0,0-4.08,3.86,3.86,0,0,0-2-2.16,9.38,9.38,0,0,0-3.41-.82q-2-.15-4.22-.14T257.93,53.37Z"/><path class="cls-1" d="M307.56,3.93h12.1l-6,28.32h.48a13.64,13.64,0,0,1,3.36-3.74,15.15,15.15,0,0,1,4.13-2.21,22,22,0,0,1,4.56-1.06,38.39,38.39,0,0,1,4.66-.29q6.43,0,9.94,1.73a9.4,9.4,0,0,1,4.8,4.9,16.37,16.37,0,0,1,.91,7.63,86.78,86.78,0,0,1-1.54,10Q343.75,55,342.31,60a28.3,28.3,0,0,1-4.08,8.69,17.8,17.8,0,0,1-7,5.76q-4.32,2.07-11.33,2.06a34.72,34.72,0,0,1-5-.34,13,13,0,0,1-4.08-1.25,9.6,9.6,0,0,1-3.07-2.5,9.83,9.83,0,0,1-1.87-4.08h-.38l-1.15,7.58H292.3ZM318.84,35a10.22,10.22,0,0,0-4.22,2.64,12.85,12.85,0,0,0-2.69,4.66,57.67,57.67,0,0,0-1.87,6.91q-1,4.51-1.54,7.87a13.06,13.06,0,0,0,0,5.62,5.32,5.32,0,0,0,2.88,3.41,15.71,15.71,0,0,0,6.86,1.15,15.08,15.08,0,0,0,6.58-1.2,9.68,9.68,0,0,0,3.94-3.5,19.23,19.23,0,0,0,2.35-5.66q.86-3.36,1.73-7.68a53,53,0,0,0,1.1-7.68,8.68,8.68,0,0,0-.77-4.61,4.62,4.62,0,0,0-2.83-2.21,18.22,18.22,0,0,0-5.09-.58A20.5,20.5,0,0,0,318.84,35Z"/><path class="cls-1" d="M5,90v5.59h7.79v1.52H5v7.36H3.15v-16H13V90Z"/><path class="cls-1" d="M26.66,88.45h1.8v11.2q0,3-1.22,4t-5.14,1q-3.67,0-5-.92t-1.32-3.5V88.45h1.8v11.2q0,2.27.74,2.85t3.63.58q3.14,0,3.91-.57t.77-2.87Z"/><path class="cls-1" d="M38.32,90.12v14.32h-1.8V90.12H31.3V88.45H43.49v1.68Z"/><path class="cls-1" d="M57.19,88.45H59v11.2q0,3-1.22,4t-5.14,1q-3.67,0-5-.92t-1.32-3.5V88.45h1.8v11.2q0,2.27.74,2.85t3.63.58q3.14,0,3.91-.57t.77-2.87Z"/><path class="cls-1" d="M62.83,104.44v-16h7.62a5.16,5.16,0,0,1,3.63,1A4.81,4.81,0,0,1,75.13,93a6,6,0,0,1-.57,3.09,3,3,0,0,1-2.19,1.13v0q2.54.19,2.54,3.09v4.09h-1.8v-3.68q0-2.8-2.43-2.8h-6v6.48Zm1.8-8h5.21a4.56,4.56,0,0,0,2.81-.63,3,3,0,0,0,.75-2.36,4.78,4.78,0,0,0-.56-2.82A3.14,3.14,0,0,0,70.47,90H64.63Z"/><path class="cls-1" d="M81.78,90v5.45H89.9v1.52H81.78v6h8.47v1.52H80v-16H90.25V90Z"/><path class="cls-1" d="M107,88.45v16h-1.8v-16Z"/><path class="cls-1" d="M125.93,88.45v16h-3l-6.7-10.89-1.09-1.79-.54-.89-.54-.89h0v14.46h-1.8v-16h3L121.06,98l1.52,2.51.76,1.24.75,1.25h0V88.45Z"/><path class="cls-1" d="M135.22,90.12v14.32h-1.8V90.12H128.2V88.45h12.19v1.68Z"/><path class="cls-1" d="M144.46,90v5.45h8.12v1.52h-8.12v6h8.47v1.52H142.66v-16h10.28V90Z"/><path class="cls-1" d="M157.21,104.44v-16h7.62a5.16,5.16,0,0,1,3.63,1A4.81,4.81,0,0,1,169.51,93a6,6,0,0,1-.57,3.09,3,3,0,0,1-2.19,1.13v0q2.54.19,2.54,3.09v4.09h-1.8v-3.68q0-2.8-2.43-2.8h-6v6.48Zm1.8-8h5.21a4.56,4.56,0,0,0,2.81-.63,3,3,0,0,0,.75-2.36,4.78,4.78,0,0,0-.56-2.82,3.14,3.14,0,0,0-2.38-.66H159Z"/><path class="cls-1" d="M187.45,88.45v16h-3l-6.7-10.89-1.09-1.79-.54-.89-.54-.89h0v14.46h-1.8v-16h3L182.58,98l1.52,2.51.76,1.24.75,1.25h0V88.45Z"/><path class="cls-1" d="M193.52,90v5.45h8.12v1.52h-8.12v6H202v1.52H191.72v-16H202V90Z"/><path class="cls-1" d="M211.28,90.12v14.32h-1.8V90.12h-5.21V88.45h12.19v1.68Z"/><path class="cls-1" d="M238.41,90.12v14.32h-1.8V90.12h-5.21V88.45h12.19v1.68Z"/><path class="cls-1" d="M248.18,90v5.45h8.12v1.52h-8.12v6h8.47v1.52H246.37v-16h10.28V90Z"/><path class="cls-1" d="M271.22,92.78h-1.79q0-1.93-.64-2.46a5.56,5.56,0,0,0-3-.52,8.39,8.39,0,0,0-3.66.5q-.82.5-.82,2.22,0,1.93.64,2.36a10.58,10.58,0,0,0,3.83.57q3.74.16,4.75.95t1,3.52q0,3-1.17,3.82t-5.15.87q-3.46,0-4.6-.87t-1.14-3.52V99.5h1.79v.4q0,2.14.66,2.67t3.36.52q3.11,0,3.82-.52t.71-2.78a2.83,2.83,0,0,0-.49-2,3.28,3.28,0,0,0-2-.58l-1.87-.09-1.78-.09q-4.07-.28-4.07-4.22,0-2.73,1.18-3.64t4.72-.91q3.59,0,4.68.85T271.22,92.78Z"/><path class="cls-1" d="M280.33,90.12v14.32h-1.8V90.12h-5.21V88.45H285.5v1.68Z"/><path class="cls-1" d="M288.29,104.44v-16h7.08q2.94,0,3.85.81t.91,3.42q0,2.66-2.05,3.36v0q2.54.61,2.54,3.76a5.07,5.07,0,0,1-1,3.57,4.76,4.76,0,0,1-3.49,1Zm1.8-9h4.75a5.11,5.11,0,0,0,2.91-.54,3.16,3.16,0,0,0,.65-2.4,2.75,2.75,0,0,0-.57-2.09,4.33,4.33,0,0,0-2.5-.47H290.1Zm0,7.44h5.46a4.59,4.59,0,0,0,2.7-.53,2.93,2.93,0,0,0,.64-2.26q0-2.14-.64-2.63t-3.5-.49H290.1Z"/><path class="cls-1" d="M306.22,90v5.45h8.12v1.52h-8.12v6h8.47v1.52H304.41v-16h10.28V90Z"/><path class="cls-1" d="M318.48,104.44v-16h7.41q3.43,0,4.65,1.51t1.22,5.79q0,5.2-1.08,6.95t-4.33,1.75Zm1.8-1.52h5.21q2.87,0,3.7-1.15t.83-5.12q0-4.36-.72-5.52T325.87,90h-5.58Z"/><path class="cls-1" d="M346.33,92.78h-1.79q0-1.93-.64-2.46a5.56,5.56,0,0,0-3-.52,8.39,8.39,0,0,0-3.66.5q-.82.5-.82,2.22,0,1.93.64,2.36a10.58,10.58,0,0,0,3.83.57q3.74.16,4.75.95t1,3.52q0,3-1.17,3.82t-5.15.87q-3.46,0-4.6-.87t-1.14-3.52V99.5h1.79v.4q0,2.14.66,2.67t3.36.52q3.11,0,3.82-.52t.71-2.78a2.83,2.83,0,0,0-.49-2,3.28,3.28,0,0,0-2-.58l-1.87-.09-1.78-.09q-4.07-.28-4.07-4.22,0-2.73,1.18-3.64t4.72-.91q3.59,0,4.68.85T346.33,92.78Z"/><polygon class="cls-1" points="393.54 33.73 522.34 33.73 490.14 40.56 361.34 40.56 393.54 33.73"/><polygon class="cls-1" points="393.54 47.9 522.34 47.9 490.14 54.73 361.34 54.73 393.54 47.9"/></svg>