<svg id="Layer_1" data-name="Layer 1" xmlns="http://www.w3.org/2000/svg" viewBox="0 0 524.91 107.86"><title>logoOneLab Black</title><path d="M58.47,4a17.71,17.71,0,0,1,8.83,3.6,12.09,12.09,0,0,1,4,8q.72,5.23-1.1,13.87l-4,19.39a53.38,53.38,0,0,1-4.7,14,23,23,0,0,1-7.25,8.35,26.27,26.27,0,0,1-10.42,4,83.62,83.62,0,0,1-14.21,1.06,85.1,85.1,0,0,1-14-1Q10,74.34,7,71.41T3.56,63.06Q3.07,57.63,5,48.8L9,29.41a57.07,57.07,0,0,1,4.46-13.54,20.86,20.86,0,0,1,6.82-8A25,25,0,0,1,30.53,4.06a95,95,0,0,1,14.59-1A88.51,88.51,0,0,1,58.47,4ZM33.65,15.58a12.66,12.66,0,0,0-5.47,2.3A10.34,10.34,0,0,0,25,22.3a55.39,55.39,0,0,0-2.16,7.1l-4,19.39a43.2,43.2,0,0,0-1.15,8.54A6.7,6.7,0,0,0,19.11,62a7.37,7.37,0,0,0,4.61,2,64.43,64.43,0,0,0,8.35.43A57.89,57.89,0,0,0,40.13,64a12.75,12.75,0,0,0,5.66-2.11,12.32,12.32,0,0,0,3.84-4.75,37.8,37.8,0,0,0,2.69-8.3l4-19.39a28,28,0,0,0,.91-8,6,6,0,0,0-2-4.32,9.26,9.26,0,0,0-4.9-1.82,66.31,66.31,0,0,0-7.78-.38A48.26,48.26,0,0,0,33.65,15.58Z"/><path d="M92.93,25.28,91.3,32.86h.38a15.17,15.17,0,0,1,3.5-4.42A14.28,14.28,0,0,1,99.36,26a18.75,18.75,0,0,1,4.7-1.06q2.5-.24,5.18-.24a25.41,25.41,0,0,1,8.06,1.06A9.06,9.06,0,0,1,121.92,29a10.09,10.09,0,0,1,1.68,5.52,33,33,0,0,1-.82,8l-7.1,33.22h-12.1l6.82-32A22.23,22.23,0,0,0,111,39.2a5.46,5.46,0,0,0-.77-3.07,4.43,4.43,0,0,0-2.54-1.68,16.86,16.86,0,0,0-4.66-.53,19.93,19.93,0,0,0-6.53.91,10.22,10.22,0,0,0-4.22,2.69,13,13,0,0,0-2.59,4.42,41.24,41.24,0,0,0-1.63,6L82.18,75.68H70.08l10.75-50.4Z"/><path d="M175.68,59.65a24.88,24.88,0,0,1-3.6,9.26,14.92,14.92,0,0,1-5.76,4.94,22.49,22.49,0,0,1-7.82,2q-4.42.38-9.79.38A42.37,42.37,0,0,1,137.23,75,10.72,10.72,0,0,1,131,70.78a13.42,13.42,0,0,1-1.82-7.92,71.43,71.43,0,0,1,1.68-12.24A83.94,83.94,0,0,1,134.12,39a22.47,22.47,0,0,1,4.94-8.06,19,19,0,0,1,8-4.7,42.94,42.94,0,0,1,12.58-1.54A44.6,44.6,0,0,1,171.79,26a9.83,9.83,0,0,1,6.14,4.46q1.78,3.17,1.39,8.59a105.8,105.8,0,0,1-2.11,13.68H142.56q-.86,4-1.25,6.82a8.28,8.28,0,0,0,.34,4.42,4.44,4.44,0,0,0,2.83,2.35,20,20,0,0,0,6.14.72q2.5,0,4.61-.1a11.53,11.53,0,0,0,3.79-.77A6.53,6.53,0,0,0,161.86,64a10.84,10.84,0,0,0,1.73-4.32Zm-8.93-14.59a32.66,32.66,0,0,0,.91-6.1,4.7,4.7,0,0,0-1-3.36,5,5,0,0,0-3.17-1.39,47,47,0,0,0-5.9-.29,32,32,0,0,0-6.24.48,7.09,7.09,0,0,0-5.81,5.14,47.07,47.07,0,0,0-1.39,5.52Z"/><path d="M198.91,63.87h33.6L230,75.68H182.59l15.26-72h13.82Z"/><path d="M270.72,69.34h-.29A11.72,11.72,0,0,1,267,73.23a14.88,14.88,0,0,1-4.32,2.06,21.35,21.35,0,0,1-4.7.82q-2.4.15-4.61.14a45.83,45.83,0,0,1-7.68-.58,11.23,11.23,0,0,1-5.42-2.3,8.41,8.41,0,0,1-2.74-4.9,20.75,20.75,0,0,1,.38-8.26,23.73,23.73,0,0,1,2.78-7.49A14.77,14.77,0,0,1,245.23,48a18,18,0,0,1,6.38-2.5,43.46,43.46,0,0,1,8.35-.72q2.3,0,4.51.1a16.22,16.22,0,0,1,4.08.67,9.4,9.4,0,0,1,3.26,1.73,6.78,6.78,0,0,1,2.06,3.26h.38L275.62,44a43.86,43.86,0,0,0,.86-5.18,5.38,5.38,0,0,0-.62-3.41A4.69,4.69,0,0,0,273,33.54a22.08,22.08,0,0,0-5.76-.58,35.62,35.62,0,0,0-3.79.19,10.17,10.17,0,0,0-3.22.86,6.16,6.16,0,0,0-2.45,2.11A11.29,11.29,0,0,0,256.22,40h-12.1a20.31,20.31,0,0,1,3.6-8.54,15.51,15.51,0,0,1,5.71-4.56A21.78,21.78,0,0,1,260.69,25q4-.34,8.3-.34a65.84,65.84,0,0,1,10.22.67,13,13,0,0,1,6.53,2.69,8.82,8.82,0,0,1,2.83,5.86,32.16,32.16,0,0,1-.86,10.18L281,75.68H268.9ZM258.24,53.12a11.36,11.36,0,0,0-3.7.77A6.67,6.67,0,0,0,251.71,56,10.36,10.36,0,0,0,250,60.22a12.27,12.27,0,0,0-.34,4.22A3.38,3.38,0,0,0,251,66.8a6.57,6.57,0,0,0,3.22,1q2.06.19,5.14.19,2.4,0,4.46-.19a10.76,10.76,0,0,0,3.74-1,7.7,7.7,0,0,0,2.83-2.35,10.76,10.76,0,0,0,1.73-4.22,7.25,7.25,0,0,0,0-4.08,3.86,3.86,0,0,0-2-2.16,9.38,9.38,0,0,0-3.41-.82q-2-.15-4.22-.14T258.24,53.12Z"/><path d="M307.87,3.68H320L314,32h.48a13.64,13.64,0,0,1,3.36-3.74A15.15,15.15,0,0,1,322,26,22,22,0,0,1,326.54,25a38.39,38.39,0,0,1,4.66-.29q6.43,0,9.94,1.73a9.4,9.4,0,0,1,4.8,4.9,16.37,16.37,0,0,1,.91,7.63,86.78,86.78,0,0,1-1.54,10q-1.25,5.76-2.69,10.75a28.3,28.3,0,0,1-4.08,8.69,17.8,17.8,0,0,1-7,5.76q-4.32,2.07-11.33,2.06a34.72,34.72,0,0,1-5-.34,13,13,0,0,1-4.08-1.25,9.6,9.6,0,0,1-3.07-2.5,9.83,9.83,0,0,1-1.87-4.08h-.38l-1.15,7.58h-12.1Zm11.28,31.1a10.22,10.22,0,0,0-4.22,2.64,12.85,12.85,0,0,0-2.69,4.66A57.67,57.67,0,0,0,310.37,49q-1,4.51-1.54,7.87a13.06,13.06,0,0,0,0,5.62,5.32,5.32,0,0,0,2.88,3.41A15.71,15.71,0,0,0,318.62,67a15.08,15.08,0,0,0,6.58-1.2,9.68,9.68,0,0,0,3.94-3.5,19.23,19.23,0,0,0,2.35-5.66q.86-3.36,1.73-7.68a53,53,0,0,0,1.1-7.68,8.68,8.68,0,0,0-.77-4.61,4.62,4.62,0,0,0-2.83-2.21,18.22,18.22,0,0,0-5.09-.58A20.5,20.5,0,0,0,319.15,34.78Z"/><path d="M5.26,89.72v5.59h7.79v1.52H5.26v7.36H3.46v-16h9.81v1.52Z"/><path d="M27,88.19h1.8V99.4q0,3-1.22,4t-5.14,1q-3.67,0-5-.92t-1.32-3.5V88.19h1.8V99.4q0,2.27.74,2.85t3.63.58q3.14,0,3.91-.57T27,99.4Z"/><path d="M38.63,89.87v14.32h-1.8V89.87H31.61V88.19H43.8v1.68Z"/><path d="M57.5,88.19h1.8V99.4q0,3-1.22,4t-5.14,1q-3.67,0-5-.92t-1.32-3.5V88.19h1.8V99.4q0,2.27.74,2.85t3.63.58q3.14,0,3.91-.57t.77-2.87Z"/><path d="M63.14,104.19v-16h7.62a5.16,5.16,0,0,1,3.63,1,4.81,4.81,0,0,1,1.05,3.54,6,6,0,0,1-.57,3.09A3,3,0,0,1,72.68,97v0q2.54.19,2.54,3.09v4.09h-1.8v-3.68q0-2.8-2.43-2.8h-6v6.48Zm1.8-8h5.21A4.56,4.56,0,0,0,73,95.56a3,3,0,0,0,.75-2.36,4.78,4.78,0,0,0-.56-2.82,3.14,3.14,0,0,0-2.38-.66H64.94Z"/><path d="M82.08,89.72v5.45h8.12v1.52H82.08v6h8.47v1.52H80.28v-16H90.56v1.52Z"/><path d="M107.3,88.19v16h-1.8v-16Z"/><path d="M126.24,88.19v16h-3l-6.7-10.89-1.09-1.79-.54-.89-.54-.89h0v14.46h-1.8v-16h3l5.85,9.54,1.52,2.51.76,1.24.75,1.25h0V88.19Z"/><path d="M135.53,89.87v14.32h-1.8V89.87h-5.21V88.19h12.19v1.68Z"/><path d="M144.77,89.72v5.45h8.12v1.52h-8.12v6h8.47v1.52H143v-16h10.28v1.52Z"/><path d="M157.51,104.19v-16h7.62a5.16,5.16,0,0,1,3.63,1,4.81,4.81,0,0,1,1.05,3.54,6,6,0,0,1-.57,3.09A3,3,0,0,1,167.05,97v0q2.54.19,2.54,3.09v4.09h-1.8v-3.68q0-2.8-2.43-2.8h-6v6.48Zm1.8-8h5.21a4.56,4.56,0,0,0,2.81-.63,3,3,0,0,0,.75-2.36,4.78,4.78,0,0,0-.56-2.82,3.14,3.14,0,0,0-2.38-.66h-5.84Z"/><path d="M187.75,88.19v16h-3l-6.7-10.89L177,91.51l-.54-.89-.54-.89h0v14.46h-1.8v-16h3l5.85,9.54,1.52,2.51.76,1.24.75,1.25h0V88.19Z"/><path d="M193.83,89.72v5.45H202v1.52h-8.12v6h8.47v1.52H192v-16H202.3v1.52Z"/><path d="M211.59,89.87v14.32h-1.8V89.87h-5.21V88.19h12.19v1.68Z"/><path d="M238.72,89.87v14.32h-1.8V89.87H231.7V88.19h12.19v1.68Z"/><path d="M248.49,89.72v5.45h8.12v1.52h-8.12v6H257v1.52H246.68v-16H257v1.52Z"/><path d="M271.53,92.53h-1.79q0-1.93-.64-2.46a5.56,5.56,0,0,0-3-.52,8.39,8.39,0,0,0-3.66.5q-.82.5-.82,2.22,0,1.93.64,2.36a10.58,10.58,0,0,0,3.83.57q3.74.16,4.75.95t1,3.52q0,3-1.17,3.82t-5.15.87q-3.46,0-4.6-.87T259.76,100v-.71h1.79v.4q0,2.14.66,2.67t3.36.52q3.11,0,3.82-.52t.71-2.78a2.83,2.83,0,0,0-.49-2,3.28,3.28,0,0,0-2-.58l-1.87-.09-1.78-.09q-4.07-.28-4.07-4.22,0-2.73,1.18-3.64t4.72-.91q3.59,0,4.68.85T271.53,92.53Z"/><path d="M280.64,89.87v14.32h-1.8V89.87h-5.21V88.19h12.19v1.68Z"/><path d="M288.6,104.19v-16h7.08q2.94,0,3.85.81t.91,3.42q0,2.66-2.05,3.36v0q2.54.61,2.54,3.76a5.07,5.07,0,0,1-1,3.57,4.76,4.76,0,0,1-3.49,1Zm1.8-9h4.75a5.11,5.11,0,0,0,2.91-.54,3.16,3.16,0,0,0,.65-2.4,2.75,2.75,0,0,0-.57-2.09,4.33,4.33,0,0,0-2.5-.47H290.4Zm0,7.44h5.46a4.59,4.59,0,0,0,2.7-.53,2.93,2.93,0,0,0,.64-2.26q0-2.14-.64-2.63t-3.5-.49H290.4Z"/><path d="M306.53,89.72v5.45h8.12v1.52h-8.12v6H315v1.52H304.72v-16H315v1.52Z"/><path d="M318.79,104.19v-16h7.41q3.43,0,4.65,1.51t1.22,5.79q0,5.2-1.08,6.95t-4.33,1.75Zm1.8-1.52h5.21q2.87,0,3.7-1.15t.83-5.12q0-4.36-.72-5.52t-3.45-1.16H320.6Z"/><path d="M346.64,92.53h-1.79q0-1.93-.64-2.46a5.56,5.56,0,0,0-3-.52,8.39,8.39,0,0,0-3.66.5q-.82.5-.82,2.22,0,1.93.64,2.36a10.58,10.58,0,0,0,3.83.57q3.74.16,4.75.95t1,3.52q0,3-1.17,3.82t-5.15.87q-3.46,0-4.6-.87T334.88,100v-.71h1.79v.4q0,2.14.66,2.67t3.36.52q3.11,0,3.82-.52t.71-2.78a2.83,2.83,0,0,0-.49-2,3.28,3.28,0,0,0-2-.58l-1.87-.09L339,96.81Q335,96.53,335,92.59q0-2.73,1.18-3.64t4.72-.91q3.59,0,4.68.85T346.64,92.53Z"/><polygon points="393.85 33.48 522.65 33.48 490.45 40.3 361.65 40.3 393.85 33.48"/><polygon points="393.85 47.65 522.65 47.65 490.45 54.48 361.65 54.48 393.85 47.65"/></svg>