<svg id="Layer_1" data-name="Layer 1" xmlns="http://www.w3.org/2000/svg" viewBox="0 0 524.91 107.86"><defs><style>.cls-1{fill:#20214f;}.cls-2{fill:#6c4675;}</style></defs><title>logoOneLab Color</title><path class="cls-1" d="M58,3.47a17.71,17.71,0,0,1,8.83,3.6,12.09,12.09,0,0,1,4,8q.72,5.23-1.1,13.87l-4,19.39a53.38,53.38,0,0,1-4.7,14,23,23,0,0,1-7.25,8.35,26.27,26.27,0,0,1-10.42,4,83.62,83.62,0,0,1-14.21,1.06,85.1,85.1,0,0,1-14-1q-5.62-1-8.59-3.89T3.11,62.56Q2.63,57.14,4.55,48.3l4-19.39a57.07,57.07,0,0,1,4.46-13.54,20.86,20.86,0,0,1,6.82-8A25,25,0,0,1,30.09,3.57a95,95,0,0,1,14.59-1A88.51,88.51,0,0,1,58,3.47ZM33.21,15.09a12.66,12.66,0,0,0-5.47,2.3,10.34,10.34,0,0,0-3.17,4.42,55.39,55.39,0,0,0-2.16,7.1l-4,19.39a43.2,43.2,0,0,0-1.15,8.54,6.7,6.7,0,0,0,1.44,4.66,7.37,7.37,0,0,0,4.61,2,64.43,64.43,0,0,0,8.35.43,57.89,57.89,0,0,0,8.06-.48,12.75,12.75,0,0,0,5.66-2.11,12.32,12.32,0,0,0,3.84-4.75,37.8,37.8,0,0,0,2.69-8.3l4-19.39a28,28,0,0,0,.91-8,6,6,0,0,0-2-4.32A9.26,9.26,0,0,0,50,14.8a66.31,66.31,0,0,0-7.78-.38A48.26,48.26,0,0,0,33.21,15.09Z"/><path class="cls-1" d="M92.49,24.78l-1.63,7.58h.38a15.17,15.17,0,0,1,3.5-4.42,14.28,14.28,0,0,1,4.18-2.45,18.75,18.75,0,0,1,4.7-1.06q2.5-.24,5.18-.24a25.41,25.41,0,0,1,8.06,1.06,9.06,9.06,0,0,1,4.61,3.22A10.09,10.09,0,0,1,123.16,34a33,33,0,0,1-.82,8l-7.1,33.22h-12.1l6.82-32a22.23,22.23,0,0,0,.58-4.51,5.46,5.46,0,0,0-.77-3.07,4.43,4.43,0,0,0-2.54-1.68,16.86,16.86,0,0,0-4.66-.53,19.93,19.93,0,0,0-6.53.91A10.22,10.22,0,0,0,91.82,37a13,13,0,0,0-2.59,4.42,41.24,41.24,0,0,0-1.63,6L81.74,75.18H69.64l10.75-50.4Z"/><path class="cls-1" d="M175.24,59.15a24.88,24.88,0,0,1-3.6,9.26,14.92,14.92,0,0,1-5.76,4.94,22.49,22.49,0,0,1-7.82,2q-4.42.38-9.79.38a42.37,42.37,0,0,1-11.47-1.25,10.72,10.72,0,0,1-6.24-4.22,13.42,13.42,0,0,1-1.82-7.92,71.43,71.43,0,0,1,1.68-12.24,83.94,83.94,0,0,1,3.26-11.62,22.47,22.47,0,0,1,4.94-8.06,19,19,0,0,1,8-4.7,42.94,42.94,0,0,1,12.58-1.54,44.6,44.6,0,0,1,12.14,1.3A9.83,9.83,0,0,1,177.5,30q1.78,3.17,1.39,8.59a105.8,105.8,0,0,1-2.11,13.68H142.12q-.86,4-1.25,6.82a8.28,8.28,0,0,0,.34,4.42A4.44,4.44,0,0,0,144,65.82a20,20,0,0,0,6.14.72q2.5,0,4.61-.1a11.53,11.53,0,0,0,3.79-.77,6.53,6.53,0,0,0,2.83-2.21,10.84,10.84,0,0,0,1.73-4.32Zm-8.93-14.59a32.66,32.66,0,0,0,.91-6.1,4.7,4.7,0,0,0-1-3.36,5,5,0,0,0-3.17-1.39,47,47,0,0,0-5.9-.29,32,32,0,0,0-6.24.48A7.09,7.09,0,0,0,145.15,39a47.07,47.07,0,0,0-1.39,5.52Z"/><path class="cls-1" d="M198.47,63.37h33.6l-2.5,11.81H182.15l15.26-72h13.82Z"/><path class="cls-1" d="M270.28,68.85H270a11.72,11.72,0,0,1-3.46,3.89,14.88,14.88,0,0,1-4.32,2.06,21.35,21.35,0,0,1-4.7.82q-2.4.15-4.61.14a45.83,45.83,0,0,1-7.68-.58,11.23,11.23,0,0,1-5.42-2.3,8.41,8.41,0,0,1-2.74-4.9,20.75,20.75,0,0,1,.38-8.26,23.73,23.73,0,0,1,2.78-7.49,14.77,14.77,0,0,1,4.56-4.75,18,18,0,0,1,6.38-2.5,43.46,43.46,0,0,1,8.35-.72q2.3,0,4.51.1a16.22,16.22,0,0,1,4.08.67,9.4,9.4,0,0,1,3.26,1.73A6.78,6.78,0,0,1,273.45,50h.38l1.34-6.53a43.86,43.86,0,0,0,.86-5.18,5.38,5.38,0,0,0-.62-3.41A4.69,4.69,0,0,0,272.58,33a22.08,22.08,0,0,0-5.76-.58,35.62,35.62,0,0,0-3.79.19,10.17,10.17,0,0,0-3.22.86,6.16,6.16,0,0,0-2.45,2.11,11.29,11.29,0,0,0-1.58,3.84h-12.1a20.31,20.31,0,0,1,3.6-8.54A15.51,15.51,0,0,1,253,26.37a21.78,21.78,0,0,1,7.25-1.82q4-.34,8.3-.34a65.84,65.84,0,0,1,10.22.67,13,13,0,0,1,6.53,2.69,8.82,8.82,0,0,1,2.83,5.86,32.16,32.16,0,0,1-.86,10.18l-6.72,31.58h-12.1ZM257.8,52.62a11.36,11.36,0,0,0-3.7.77,6.67,6.67,0,0,0-2.83,2.16,10.36,10.36,0,0,0-1.73,4.18,12.27,12.27,0,0,0-.34,4.22,3.38,3.38,0,0,0,1.39,2.35,6.57,6.57,0,0,0,3.22,1q2.06.19,5.14.19,2.4,0,4.46-.19a10.76,10.76,0,0,0,3.74-1A7.7,7.7,0,0,0,270,63.95a10.76,10.76,0,0,0,1.73-4.22,7.25,7.25,0,0,0,0-4.08,3.86,3.86,0,0,0-2-2.16,9.38,9.38,0,0,0-3.41-.82q-2-.15-4.22-.14T257.8,52.62Z"/><path class="cls-1" d="M307.43,3.18h12.1l-6,28.32h.48a13.64,13.64,0,0,1,3.36-3.74,15.15,15.15,0,0,1,4.13-2.21,22,22,0,0,1,4.56-1.06,38.39,38.39,0,0,1,4.66-.29q6.43,0,9.94,1.73a9.4,9.4,0,0,1,4.8,4.9,16.37,16.37,0,0,1,.91,7.63,86.78,86.78,0,0,1-1.54,10q-1.25,5.76-2.69,10.75a28.3,28.3,0,0,1-4.08,8.69,17.8,17.8,0,0,1-7,5.76q-4.32,2.07-11.33,2.06a34.72,34.72,0,0,1-5-.34,13,13,0,0,1-4.08-1.25,9.6,9.6,0,0,1-3.07-2.5,9.83,9.83,0,0,1-1.87-4.08h-.38l-1.15,7.58h-12.1Zm11.28,31.1a10.22,10.22,0,0,0-4.22,2.64,12.85,12.85,0,0,0-2.69,4.66,57.67,57.67,0,0,0-1.87,6.91q-1,4.51-1.54,7.87a13.06,13.06,0,0,0,0,5.62,5.32,5.32,0,0,0,2.88,3.41,15.71,15.71,0,0,0,6.86,1.15,15.08,15.08,0,0,0,6.58-1.2,9.68,9.68,0,0,0,3.94-3.5A19.23,19.23,0,0,0,331,56.17q.86-3.36,1.73-7.68a53,53,0,0,0,1.1-7.68,8.68,8.68,0,0,0-.77-4.61A4.62,4.62,0,0,0,330.28,34a18.22,18.22,0,0,0-5.09-.58A20.5,20.5,0,0,0,318.71,34.29Z"/><path class="cls-1" d="M4.82,89.22v5.59h7.79v1.52H4.82v7.36H3v-16h9.81v1.52Z"/><path class="cls-1" d="M26.53,87.7h1.8V98.9q0,3-1.22,4t-5.14,1q-3.67,0-5-.92t-1.32-3.5V87.7h1.8V98.9q0,2.27.74,2.85t3.63.58q3.14,0,3.91-.57t.77-2.87Z"/><path class="cls-1" d="M38.19,89.37v14.32h-1.8V89.37H31.17V87.7H43.36v1.68Z"/><path class="cls-1" d="M57.06,87.7h1.8V98.9q0,3-1.22,4t-5.14,1q-3.67,0-5-.92t-1.32-3.5V87.7H48V98.9q0,2.27.74,2.85t3.63.58q3.14,0,3.91-.57t.77-2.87Z"/><path class="cls-1" d="M62.7,103.69v-16h7.62a5.16,5.16,0,0,1,3.63,1A4.81,4.81,0,0,1,75,92.25a6,6,0,0,1-.57,3.09,3,3,0,0,1-2.19,1.13v0q2.54.19,2.54,3.09v4.09H73V100q0-2.8-2.43-2.8h-6v6.48Zm1.8-8h5.21a4.56,4.56,0,0,0,2.81-.63,3,3,0,0,0,.75-2.36,4.78,4.78,0,0,0-.56-2.82,3.14,3.14,0,0,0-2.38-.66H64.5Z"/><path class="cls-1" d="M81.64,89.22v5.45h8.12v1.52H81.64v6h8.47v1.52H79.84v-16H90.12v1.52Z"/><path class="cls-1" d="M106.86,87.7v16h-1.8v-16Z"/><path class="cls-1" d="M125.79,87.7v16h-3l-6.7-10.89L115,91l-.54-.89-.54-.89h0v14.46h-1.8v-16h3l5.85,9.54,1.52,2.51.76,1.24.75,1.25h0V87.7Z"/><path class="cls-1" d="M135.08,89.37v14.32h-1.8V89.37h-5.21V87.7h12.19v1.68Z"/><path class="cls-1" d="M144.33,89.22v5.45h8.12v1.52h-8.12v6h8.47v1.52H142.52v-16H152.8v1.52Z"/><path class="cls-1" d="M157.07,103.69v-16h7.62a5.16,5.16,0,0,1,3.63,1,4.81,4.81,0,0,1,1.05,3.54,6,6,0,0,1-.57,3.09,3,3,0,0,1-2.19,1.13v0q2.54.19,2.54,3.09v4.09h-1.8V100q0-2.8-2.43-2.8h-6v6.48Zm1.8-8h5.21a4.56,4.56,0,0,0,2.81-.63,3,3,0,0,0,.75-2.36,4.78,4.78,0,0,0-.56-2.82,3.14,3.14,0,0,0-2.38-.66h-5.84Z"/><path class="cls-1" d="M187.31,87.7v16h-3l-6.7-10.89L176.55,91l-.54-.89-.54-.89h0v14.46h-1.8v-16h3l5.85,9.54L184,99.74l.76,1.24.75,1.25h0V87.7Z"/><path class="cls-1" d="M193.39,89.22v5.45h8.12v1.52h-8.12v6h8.47v1.52H191.58v-16h10.28v1.52Z"/><path class="cls-1" d="M211.15,89.37v14.32h-1.8V89.37h-5.21V87.7h12.19v1.68Z"/><path class="cls-1" d="M238.28,89.37v14.32h-1.8V89.37h-5.21V87.7h12.19v1.68Z"/><path class="cls-1" d="M248,89.22v5.45h8.12v1.52H248v6h8.47v1.52H246.24v-16h10.28v1.52Z"/><path class="cls-1" d="M271.09,92H269.3q0-1.93-.64-2.46a5.56,5.56,0,0,0-3-.52,8.39,8.39,0,0,0-3.66.5q-.82.5-.82,2.22,0,1.93.64,2.36a10.58,10.58,0,0,0,3.83.57q3.74.16,4.75.95t1,3.52q0,3-1.17,3.82t-5.15.87q-3.46,0-4.6-.87t-1.14-3.52v-.71h1.79v.4q0,2.14.66,2.67t3.36.52q3.11,0,3.82-.52t.71-2.78a2.83,2.83,0,0,0-.49-2,3.28,3.28,0,0,0-2-.58l-1.87-.09-1.78-.09q-4.07-.28-4.07-4.22,0-2.73,1.18-3.64t4.72-.91q3.59,0,4.68.85T271.09,92Z"/><path class="cls-1" d="M280.2,89.37v14.32h-1.8V89.37h-5.21V87.7h12.19v1.68Z"/><path class="cls-1" d="M288.16,103.69v-16h7.08q2.94,0,3.85.81t.91,3.42q0,2.66-2.05,3.36v0q2.54.61,2.54,3.76a5.07,5.07,0,0,1-1,3.57,4.76,4.76,0,0,1-3.49,1Zm1.8-9h4.75a5.11,5.11,0,0,0,2.91-.54,3.16,3.16,0,0,0,.65-2.4,2.75,2.75,0,0,0-.57-2.09,4.33,4.33,0,0,0-2.5-.47H290Zm0,7.44h5.46a4.59,4.59,0,0,0,2.7-.53,2.93,2.93,0,0,0,.64-2.26q0-2.14-.64-2.63t-3.5-.49H290Z"/><path class="cls-1" d="M306.08,89.22v5.45h8.12v1.52h-8.12v6h8.47v1.52H304.28v-16h10.28v1.52Z"/><path class="cls-1" d="M318.35,103.69v-16h7.41q3.43,0,4.65,1.51T331.63,95q0,5.2-1.08,6.95t-4.33,1.75Zm1.8-1.52h5.21q2.87,0,3.7-1.15t.83-5.12q0-4.36-.72-5.52t-3.45-1.16h-5.58Z"/><path class="cls-1" d="M346.2,92h-1.79q0-1.93-.64-2.46a5.56,5.56,0,0,0-3-.52,8.39,8.39,0,0,0-3.66.5q-.82.5-.82,2.22,0,1.93.64,2.36a10.58,10.58,0,0,0,3.83.57q3.74.16,4.75.95t1,3.52q0,3-1.17,3.82t-5.15.87q-3.46,0-4.6-.87t-1.14-3.52v-.71h1.79v.4q0,2.14.66,2.67t3.36.52q3.11,0,3.82-.52t.71-2.78a2.83,2.83,0,0,0-.49-2,3.28,3.28,0,0,0-2-.58l-1.87-.09-1.78-.09q-4.07-.28-4.07-4.22,0-2.73,1.18-3.64t4.72-.91q3.59,0,4.68.85T346.2,92Z"/><polygon class="cls-2" points="393.41 32.98 522.21 32.98 490.01 39.81 361.21 39.81 393.41 32.98"/><polygon class="cls-2" points="393.41 47.15 522.21 47.15 490.01 53.98 361.21 53.98 393.41 47.15"/></svg>